{"title":"The.Woman.2011.BRRip.XviD.AC3-PRESTiGE.","uid":7036378,"size":1955835043,"categoryP":"video","categoryS":"movies","magnet":"?xt=urn:btih:878ce3e6c9fe670e79256865284f9b0a4b5defa2&amp;dn=The.Woman.2011.BRRip.XviD.AC3-PRESTiGE.&amp;tr=udp%3A%2F%2Ftracker.openbittorrent.com%3A80&amp;tr=udp%3A%2F%2Fopen.demonii.com%3A1337&amp;tr=udp%3A%2F%2Ftracker.coppersurfer.tk%3A6969&amp;tr=udp%3A%2F%2Fexodus.desync.com%3A6969","seeders":0,"leechers":0,"uploader":"moviesp2p","files":4,"time":1329397280,"description":"More info www. MoviesP2P. com\n\n\nGeneral Information:\n\nComplete name                            : The.Woman.2011.BRRip.XviD.AC3-PRESTiGE\nFormat                                   : AVI\nFormat/Info                              : Audio Video Interleave\nFile size                                : 1.80 GiB\nDuration                                 : 1h 42mn\nOverall bit rate                         : 2 513 Kbps\nLanguage                                 : English\nSubs                                     : N/A\nSource                                   : 720p-7SinS Many THANKS\nEncoder                                  : akosipalos\n\niMDB: http://www.imdb.com/title/tt1714208/\n\nVideo\n\nID                                       : 0\nFormat                                   : MPEG-4 Visual\nFormat profile                           : Advanced Simple@L5\nFormat settings, BVOP                    : 2\nFormat settings, QPel                    : No\nFormat settings, GMC                     : No warppoints\nFormat settings, Matrix                  : Default (H.263)\nCodec ID                                 : XVID\nCodec ID/Hint                            : XviD\nDuration                                 : 1h 42mn\nBit rate                                 : 2 058 Kbps\nWidth                                    : 720 pixels\nHeight                                   : 400 pixels\nDisplay aspect ratio                     : 16:9\nFrame rate                               : 23.976 fps\nColor space                              : YUV\nChroma subsampling                       : 4:2:0\nBit depth                                : 8 bits\nScan type                                : Progressive\nCompression mode                         : Lossy\nBits/(Pixel*Frame)                       : 0.298\nStream size                              : 1.48 GiB (82%)\nWriting library                          : XviD 1.2.1 (UTC 2008-12-04)\n\nAudio\n\nID                                       : 1\nFormat                                   : AC-3\nFormat/Info                              : Audio Coding 3\nMode extension                           : CM (complete main)\nCodec ID                                 : 2000\nDuration                                 : 1h 42mn\nBit rate mode                            : Constant\nBit rate                                 : 448 Kbps\nChannel(s)                               : 6 channels\nChannel positions                        : Front: L C R, Side: L R, LFE\nSampling rate                            : 48.0 KHz\nBit depth                                : 16 bits\nCompression mode                         : Lossy\nStream size                              : 329 MiB (18%)\nAlignment                                : Aligned on interleaves\nInterleave, duration                     : 64 ms (1.53 video frames)\nInterleave, preload duration             : 192 ms","torrent":{"xt":"urn:btih:878ce3e6c9fe670e79256865284f9b0a4b5defa2","amp;dn":"The.Woman.2011.BRRip.XviD.AC3-PRESTiGE.","amp;tr":["udp%3A%2F%2Ftracker.openbittorrent.com%3A80","udp%3A%2F%2Fopen.demonii.com%3A1337","udp%3A%2F%2Ftracker.coppersurfer.tk%3A6969","udp%3A%2F%2Fexodus.desync.com%3A6969"],"infoHash":"878ce3e6c9fe670e79256865284f9b0a4b5defa2","infoHashBuffer":{"type":"Buffer","data":[135,140,227,230,201,254,103,14,121,37,104,101,40,79,155,10,75,93,239,162]},"announce":[],"urlList":[]}}